<svg width="512" height="512" viewBox="0 0 512 512" xmlns="http://www.w3.org/2000/svg">
  <defs>
    <linearGradient id="bgB" x1="0" y1="0" x2="1" y2="1">
      <stop offset="0%" stop-color="#3D9BFF"/>
      <stop offset="100%" stop-color="#1366E8"/>
    </linearGradient>
    <linearGradient id="sandB" x1="0" y1="0" x2="0" y2="1">
      <stop offset="0%" stop-color="#FFFFFF"/>
      <stop offset="50%" stop-color="#FDE68A"/>
      <stop offset="100%" stop-color="#F59E0B"/>
    </linearGradient>
  </defs>

  <rect width="512" height="512" rx="120" fill="url(#bgB)"/>

  <!-- 진행 링 (시간/투자 상징) -->
  <circle cx="256" cy="256" r="170" fill="none" stroke="rgba(255,255,255,0.15)" stroke-width="14"/>
  <circle cx="256" cy="256" r="170" fill="none" stroke="#FDE68A" stroke-width="14"
          stroke-linecap="round" stroke-dasharray="800 1068" transform="rotate(-90 256 256)"/>

  <!-- 모래시계 (흰색 실루엣, 미니멀) -->
  <g>
    <!-- 상단 프레임 -->
    <rect x="178" y="158" width="156" height="18" rx="9" fill="#FFFFFF"/>
    <rect x="178" y="336" width="156" height="18" rx="9" fill="#FFFFFF"/>

    <!-- 유리 외곽 (흰 선) -->
    <path d="M 196 176 C 192 218, 248 248, 256 256 C 264 248, 320 218, 316 176"
          fill="none" stroke="#FFFFFF" stroke-width="5" stroke-linecap="round" stroke-linejoin="round"/>
    <path d="M 256 256 C 248 264, 192 294, 196 336 M 316 336 C 320 294, 264 264, 256 256"
          fill="none" stroke="#FFFFFF" stroke-width="5" stroke-linecap="round" stroke-linejoin="round"/>

    <!-- 상단 모래 -->
    <path d="M 210 192 C 206 216, 248 244, 256 250 C 264 244, 306 216, 302 192 Z" fill="url(#sandB)"/>
    <!-- 하단 모래 -->
    <path d="M 256 300 C 248 306, 206 324, 202 336 L 310 336 C 306 324, 264 306, 256 300 Z" fill="url(#sandB)"/>
    <!-- 줄기 -->
    <rect x="253" y="250" width="6" height="52" rx="3" fill="url(#sandB)"/>
  </g>
</svg>
